<svg width="22" height="20" viewBox="0 0 22 20" fill="none" xmlns="http://www.w3.org/2000/svg">
<g clip-path="url(#clip0_302_147)">
<path d="M20.9827 16.7589H19.2119V4.61118C19.2119 3.62158 18.4187 2.81355 17.4411 2.81355L13.3091 2.81391V5.13777H16.8508V19.0831H20.9827C21.3101 19.0831 21.573 18.8243 21.573 18.5347V17.4053C21.573 17.0167 21.3111 16.7589 20.9827 16.7589ZM10.6639 0.525899L3.58059 2.33262C3.01983 2.46891 2.68411 2.95009 2.68411 3.49919V16.7589H0.913276C0.585856 16.7589 0.322998 17.0176 0.322998 17.3072V18.4367C0.322998 18.8252 0.585856 19.0831 0.913276 19.0831H12.1286V1.69247C12.1286 0.911683 11.4092 0.33524 10.6639 0.525899ZM8.88203 10.9483C8.3932 10.9483 7.99661 10.4265 7.99661 9.81889C7.99661 9.179 8.3932 8.68946 8.88203 8.68946C9.37085 8.68946 9.76744 9.14704 9.76744 9.7862C9.76744 10.4254 9.37269 10.9483 8.88203 10.9483Z" fill="white"/>
</g>
<defs>
<clipPath id="clip0_302_147">
<rect width="21.25" height="18.5938" fill="white" transform="translate(0.322998 0.489563)"/>
</clipPath>
</defs>
</svg>
