<svg width="22" height="22" viewBox="0 0 22 22" fill="none" xmlns="http://www.w3.org/2000/svg">
<g clip-path="url(#clip0_302_145)">
<path d="M20.0212 18.2599C20.54 18.7787 20.54 19.6171 20.0212 20.1359C19.5024 20.6547 18.6641 20.6547 18.1453 20.1359L17.5933 19.6213C15.8293 21.02 13.5715 21.8542 11.0771 21.8542C8.65747 21.8542 6.39966 21.02 4.59922 19.6213L4.08499 20.1359C3.56619 20.6547 2.72532 20.6547 2.20652 20.1359C1.68813 19.6171 1.68813 18.7787 2.20652 18.2599L2.72075 17.7079C1.32249 15.944 0.489502 13.6862 0.489502 11.1918C0.489502 8.77216 1.32249 6.51434 2.72075 4.7139L2.20652 4.19967C1.68813 3.68087 1.68813 2.84 2.20652 2.3212C2.72532 1.80282 3.56619 1.80282 4.08499 2.3212L4.59922 2.83544C6.39966 1.43717 8.65747 0.604187 11.0771 0.604187C13.5715 0.604187 15.8293 1.43717 17.5933 2.83544L18.1453 2.3212C18.6641 1.80282 19.5024 1.80282 20.0212 2.3212C20.54 2.84 20.54 3.68087 20.0212 4.19967L19.5066 4.7139C20.9053 6.51434 21.7395 8.77216 21.7395 11.1918C21.7395 13.6862 20.9053 15.944 19.5066 17.7079L20.0212 18.2599ZM13.3267 15.3173C12.6667 15.6743 11.9155 15.8776 11.0771 15.8776C10.3135 15.8776 9.56226 15.6743 8.90234 15.3173L6.49927 17.7245C7.79834 18.6542 9.39209 19.1979 11.0771 19.1979C12.8369 19.1979 14.4307 18.6542 15.7297 17.7245L13.3267 15.3173ZM19.0833 11.1918C19.0833 9.50678 18.5396 7.91302 17.6099 6.61395L15.2026 9.01703C15.5596 9.67694 15.7629 10.4282 15.7629 11.2292C15.7629 12.0302 15.5596 12.7814 15.2026 13.4413L17.6099 15.8444C18.5396 14.5453 19.0833 12.9516 19.0833 11.2292V11.1918ZM11.0771 3.22308C9.39209 3.22308 7.79834 3.8058 6.49927 4.73383L8.90234 7.14105C9.56226 6.78412 10.3135 6.5434 11.0771 6.5434C11.9155 6.5434 12.6667 6.78412 13.3267 7.14105L15.7297 4.73383C14.4307 3.8058 12.8369 3.22308 11.1145 3.22308H11.0771ZM7.02637 13.4413C6.66943 12.7814 6.42871 12.0302 6.42871 11.1918C6.42871 10.4282 6.66943 9.67694 7.02637 9.01703L4.61914 6.61395C3.69111 7.91302 3.1084 9.50678 3.1084 11.1918C3.1084 12.9516 3.69111 14.5453 4.61914 15.8444L7.02637 13.4413ZM11.0771 9.19965C10.0146 9.19965 9.08496 10.1293 9.08496 11.1918C9.08496 12.329 10.0146 13.184 11.0771 13.184C12.2144 13.184 13.1067 12.329 13.1067 11.1918C13.1067 10.1293 12.2144 9.19965 11.0771 9.19965Z" fill="white"/>
</g>
<defs>
<clipPath id="clip0_302_145">
<rect width="21.25" height="21.25" fill="white" transform="translate(0.489502 0.604187)"/>
</clipPath>
</defs>
</svg>
